<svg width="25" height="24" viewBox="0 0 25 24" fill="none" xmlns="http://www.w3.org/2000/svg">
<path d="M2.75 3H4.136C4.646 3 5.091 3.343 5.223 3.835L5.606 5.272M5.606 5.272C11.1766 5.11589 16.7419 5.73515 22.142 7.112C21.318 9.566 20.339 11.95 19.218 14.25H8M5.606 5.272L8 14.25M8 14.25C7.20435 14.25 6.44129 14.5661 5.87868 15.1287C5.31607 15.6913 5 16.4544 5 17.25H20.75M6.5 20.25C6.5 20.4489 6.42098 20.6397 6.28033 20.7803C6.13968 20.921 5.94891 21 5.75 21C5.55109 21 5.36032 20.921 5.21967 20.7803C5.07902 20.6397 5 20.4489 5 20.25C5 20.0511 5.07902 19.8603 5.21967 19.7197C5.36032 19.579 5.55109 19.5 5.75 19.5C5.94891 19.5 6.13968 19.579 6.28033 19.7197C6.42098 19.8603 6.5 20.0511 6.5 20.25ZM19.25 20.25C19.25 20.4489 19.171 20.6397 19.0303 20.7803C18.8897 20.921 18.6989 21 18.5 21C18.3011 21 18.1103 20.921 17.9697 20.7803C17.829 20.6397 17.75 20.4489 17.75 20.25C17.75 20.0511 17.829 19.8603 17.9697 19.7197C18.1103 19.579 18.3011 19.5 18.5 19.5C18.6989 19.5 18.8897 19.579 19.0303 19.7197C19.171 19.8603 19.25 20.0511 19.25 20.25Z" stroke="#181818" stroke-width="1.5" stroke-linecap="round" stroke-linejoin="round"/>
</svg>
