<svg width="19" height="19" viewBox="0 0 19 19" fill="none" xmlns="http://www.w3.org/2000/svg">
<path fill-rule="evenodd" clip-rule="evenodd" d="M2 0.242676C1.17157 0.242676 0.5 0.914246 0.5 1.74268V16.7427C0.5 17.5711 1.17157 18.2427 2 18.2427H17C17.8284 18.2427 18.5 17.5711 18.5 16.7427V1.74268C18.5 0.914246 17.8284 0.242676 17 0.242676H2ZM6.02076 4.2454C6.02639 5.20165 5.31061 5.79087 4.46123 5.78665C3.66107 5.78243 2.96357 5.1454 2.96779 4.24681C2.97201 3.40165 3.63998 2.72243 4.50764 2.74212C5.38795 2.76181 6.02639 3.40728 6.02076 4.2454ZM9.7797 7.00444H7.25971H7.2583V15.5643H9.9217V15.3646C9.9217 14.9847 9.9214 14.6047 9.9211 14.2246C9.9203 13.2108 9.9194 12.1959 9.9246 11.1824C9.926 10.9363 9.9372 10.6804 10.0005 10.4455C10.2381 9.56798 11.0271 9.00128 11.9074 9.14058C12.4727 9.22908 12.8467 9.55678 13.0042 10.0898C13.1013 10.423 13.1449 10.7816 13.1491 11.129C13.1605 12.1766 13.1589 13.2242 13.1573 14.2719C13.1567 14.6417 13.1561 15.0117 13.1561 15.3815V15.5629H15.828V15.3576C15.828 14.9056 15.8278 14.4537 15.8275 14.0018C15.827 12.8723 15.8264 11.7428 15.8294 10.6129C15.8308 10.1024 15.776 9.59898 15.6508 9.10538C15.4638 8.37128 15.0771 7.76378 14.4485 7.32508C14.0027 7.01287 13.5133 6.81178 12.9663 6.78928C12.904 6.78669 12.8412 6.7833 12.7781 6.77989C12.4984 6.76477 12.2141 6.74941 11.9467 6.80334C11.1817 6.95662 10.5096 7.30678 10.0019 7.92408C9.9429 7.99488 9.8852 8.06678 9.7991 8.17408L9.7797 8.19838V7.00444ZM3.18164 15.5671H5.83242V7.01001H3.18164V15.5671Z" fill="white"/>
</svg>
